<svg id="svg" xmlns="http://www.w3.org/2000/svg" xmlns:xlink="http://www.w3.org/1999/xlink" width="400" height="400" viewBox="0, 0, 400,400">
  <g id="svgg">
    <path id="path0" d="M65.306 200.000 L 65.306 348.980 117.347 348.980 L 169.388 348.980 169.388 200.000 L 169.388 51.020 117.347 51.020 L 65.306 51.020 65.306 200.000 
      M190.075 48.000 C 260.000 72.000,280.000 135.000,240.000 180.000 
      C 230.000 193.000,205.000 205.000,190.000 207.000 
      C 180.000 208.500,180.500 210.500,195.000 215.000 
      C 270.000 235.000,275.000 320.000,200.000 355.000 
      L 180.612 360.000 257.653 360.000 L 334.694 360.000 334.694 200.000 L 334.694 51.020 257.653 51.163 
      C 175.000 52.000,170.000 52.500,190.075 48.000" 
      stroke="none" fill="#FFFFFF" fill-rule="evenodd"></path>
  </g>
</svg>
